<svg width="82" height="63" viewBox="0 0 82 63" fill="none" xmlns="http://www.w3.org/2000/svg">
<path d="M6.904 19.26C5.552 19.26 4.37333 19.0433 3.368 18.61C2.38 18.1593 1.61733 17.5787 1.08 16.868C0.56 16.1573 0.282667 15.3947 0.248 14.58C0.248 14.4413 0.3 14.32 0.404 14.216C0.508 14.112 0.638 14.06 0.794 14.06H1.314C1.626 14.06 1.81667 14.2333 1.886 14.58C2.00733 15.412 2.484 16.14 3.316 16.764C4.148 17.388 5.344 17.7 6.904 17.7C8.55067 17.7 9.77267 17.4053 10.57 16.816C11.3847 16.2093 11.792 15.3687 11.792 14.294C11.792 13.6353 11.5927 13.098 11.194 12.682C10.8127 12.2487 10.2493 11.876 9.504 11.564C8.75867 11.2347 7.632 10.8273 6.124 10.342C4.78933 9.90867 3.74067 9.484 2.978 9.068C2.23267 8.652 1.678 8.14067 1.314 7.534C0.95 6.92733 0.768 6.156 0.768 5.22C0.768 4.336 1.002 3.53867 1.47 2.828C1.95533 2.11733 2.64867 1.56267 3.55 1.164C4.45133 0.747999 5.526 0.539999 6.774 0.539999C8.05667 0.539999 9.15733 0.773999 10.076 1.242C10.9947 1.69267 11.688 2.27333 12.156 2.984C12.624 3.67733 12.8753 4.37933 12.91 5.09C12.91 5.22867 12.858 5.35 12.754 5.454C12.6673 5.558 12.5373 5.61 12.364 5.61H11.844C11.7227 5.61 11.6013 5.57533 11.48 5.506C11.3587 5.41933 11.2893 5.28067 11.272 5.09C11.168 4.22333 10.7 3.51267 9.868 2.958C9.05333 2.386 8.022 2.1 6.774 2.1C5.43933 2.1 4.37333 2.36 3.576 2.88C2.796 3.4 2.406 4.18 2.406 5.22C2.406 5.896 2.57933 6.45933 2.926 6.91C3.29 7.34333 3.82733 7.72467 4.538 8.054C5.24867 8.366 6.29733 8.74733 7.684 9.198C9.10533 9.64867 10.2147 10.082 11.012 10.498C11.8093 10.914 12.4073 11.4167 12.806 12.006C13.222 12.5953 13.43 13.358 13.43 14.294C13.43 15.854 12.8493 17.076 11.688 17.96C10.5267 18.8267 8.932 19.26 6.904 19.26ZM15.6323 19C15.4936 19 15.3723 18.948 15.2683 18.844C15.1643 18.74 15.1123 18.6187 15.1123 18.48L15.1643 18.194L21.7423 1.32C21.8809 0.973332 22.1323 0.799999 22.4963 0.799999H23.3803C23.7443 0.799999 23.9956 0.973332 24.1343 1.32L30.7123 18.194L30.7643 18.48C30.7643 18.6187 30.7123 18.74 30.6083 18.844C30.5043 18.948 30.3829 19 30.2443 19H29.7243C29.5683 19 29.4383 18.9567 29.3343 18.87C29.2476 18.7833 29.1869 18.6967 29.1523 18.61L27.5403 14.45H18.3363L16.7243 18.61C16.6896 18.6967 16.6203 18.7833 16.5163 18.87C16.4296 18.9567 16.3083 19 16.1523 19H15.6323ZM26.9163 12.89L22.9383 2.646L18.9603 12.89H26.9163ZM39.0485 19.26C37.6965 19.26 36.5179 19.0433 35.5125 18.61C34.5245 18.1593 33.7619 17.5787 33.2245 16.868C32.7045 16.1573 32.4272 15.3947 32.3925 14.58C32.3925 14.4413 32.4445 14.32 32.5485 14.216C32.6525 14.112 32.7825 14.06 32.9385 14.06H33.4585C33.7705 14.06 33.9612 14.2333 34.0305 14.58C34.1519 15.412 34.6285 16.14 35.4605 16.764C36.2925 17.388 37.4885 17.7 39.0485 17.7C40.6952 17.7 41.9172 17.4053 42.7145 16.816C43.5292 16.2093 43.9365 15.3687 43.9365 14.294C43.9365 13.6353 43.7372 13.098 43.3385 12.682C42.9572 12.2487 42.3939 11.876 41.6485 11.564C40.9032 11.2347 39.7765 10.8273 38.2685 10.342C36.9339 9.90867 35.8852 9.484 35.1225 9.068C34.3772 8.652 33.8225 8.14067 33.4585 7.534C33.0945 6.92733 32.9125 6.156 32.9125 5.22C32.9125 4.336 33.1465 3.53867 33.6145 2.828C34.0999 2.11733 34.7932 1.56267 35.6945 1.164C36.5959 0.747999 37.6705 0.539999 38.9185 0.539999C40.2012 0.539999 41.3019 0.773999 42.2205 1.242C43.1392 1.69267 43.8325 2.27333 44.3005 2.984C44.7685 3.67733 45.0199 4.37933 45.0545 5.09C45.0545 5.22867 45.0025 5.35 44.8985 5.454C44.8119 5.558 44.6819 5.61 44.5085 5.61H43.9885C43.8672 5.61 43.7459 5.57533 43.6245 5.506C43.5032 5.41933 43.4339 5.28067 43.4165 5.09C43.3125 4.22333 42.8445 3.51267 42.0125 2.958C41.1979 2.386 40.1665 2.1 38.9185 2.1C37.5839 2.1 36.5179 2.36 35.7205 2.88C34.9405 3.4 34.5505 4.18 34.5505 5.22C34.5505 5.896 34.7239 6.45933 35.0705 6.91C35.4345 7.34333 35.9719 7.72467 36.6825 8.054C37.3932 8.366 38.4419 8.74733 39.8285 9.198C41.2499 9.64867 42.3592 10.082 43.1565 10.498C43.9539 10.914 44.5519 11.4167 44.9505 12.006C45.3665 12.5953 45.5745 13.358 45.5745 14.294C45.5745 15.854 44.9939 17.076 43.8325 17.96C42.6712 18.8267 41.0765 19.26 39.0485 19.26ZM49.9027 19C49.7294 19 49.5907 18.948 49.4867 18.844C49.3827 18.74 49.3307 18.6013 49.3307 18.428V1.398C49.3307 1.22467 49.3827 1.086 49.4867 0.982C49.5907 0.860666 49.7294 0.799999 49.9027 0.799999H50.3707C50.5614 0.799999 50.7087 0.851999 50.8127 0.956C50.9167 1.06 50.9687 1.20733 50.9687 1.398V8.99H61.0047V1.398C61.0047 1.22467 61.0567 1.086 61.1607 0.982C61.2647 0.860666 61.4034 0.799999 61.5767 0.799999H62.0447C62.2354 0.799999 62.3827 0.851999 62.4867 0.956C62.5907 1.06 62.6427 1.20733 62.6427 1.398V18.428C62.6427 18.6013 62.5821 18.74 62.4607 18.844C62.3567 18.948 62.2181 19 62.0447 19H61.5767C61.4034 19 61.2647 18.948 61.1607 18.844C61.0567 18.74 61.0047 18.6013 61.0047 18.428V10.55H50.9687V18.428C50.9687 18.6013 50.9081 18.74 50.7867 18.844C50.6827 18.948 50.5441 19 50.3707 19H49.9027ZM66.2358 19C66.0971 19 65.9758 18.948 65.8718 18.844C65.7678 18.74 65.7158 18.6187 65.7158 18.48L65.7678 18.194L72.3458 1.32C72.4845 0.973332 72.7358 0.799999 73.0998 0.799999H73.9838C74.3478 0.799999 74.5991 0.973332 74.7378 1.32L81.3158 18.194L81.3678 18.48C81.3678 18.6187 81.3158 18.74 81.2118 18.844C81.1078 18.948 80.9865 19 80.8478 19H80.3278C80.1718 19 80.0418 18.9567 79.9378 18.87C79.8511 18.7833 79.7905 18.6967 79.7558 18.61L78.1438 14.45H68.9398L67.3278 18.61C67.2931 18.6967 67.2238 18.7833 67.1198 18.87C67.0331 18.9567 66.9118 19 66.7558 19H66.2358ZM77.5198 12.89L73.5418 2.646L69.5638 12.89H77.5198ZM6.904 41.26C5.552 41.26 4.37333 41.0433 3.368 40.61C2.38 40.1593 1.61733 39.5787 1.08 38.868C0.56 38.1573 0.282667 37.3947 0.248 36.58C0.248 36.4413 0.3 36.32 0.404 36.216C0.508 36.112 0.638 36.06 0.794 36.06H1.314C1.626 36.06 1.81667 36.2333 1.886 36.58C2.00733 37.412 2.484 38.14 3.316 38.764C4.148 39.388 5.344 39.7 6.904 39.7C8.55067 39.7 9.77267 39.4053 10.57 38.816C11.3847 38.2093 11.792 37.3687 11.792 36.294C11.792 35.6353 11.5927 35.098 11.194 34.682C10.8127 34.2487 10.2493 33.876 9.504 33.564C8.75867 33.2347 7.632 32.8273 6.124 32.342C4.78933 31.9087 3.74067 31.484 2.978 31.068C2.23267 30.652 1.678 30.1407 1.314 29.534C0.95 28.9273 0.768 28.156 0.768 27.22C0.768 26.336 1.002 25.5387 1.47 24.828C1.95533 24.1173 2.64867 23.5627 3.55 23.164C4.45133 22.748 5.526 22.54 6.774 22.54C8.05667 22.54 9.15733 22.774 10.076 23.242C10.9947 23.6927 11.688 24.2733 12.156 24.984C12.624 25.6773 12.8753 26.3793 12.91 27.09C12.91 27.2287 12.858 27.35 12.754 27.454C12.6673 27.558 12.5373 27.61 12.364 27.61H11.844C11.7227 27.61 11.6013 27.5753 11.48 27.506C11.3587 27.4193 11.2893 27.2807 11.272 27.09C11.168 26.2233 10.7 25.5127 9.868 24.958C9.05333 24.386 8.022 24.1 6.774 24.1C5.43933 24.1 4.37333 24.36 3.576 24.88C2.796 25.4 2.406 26.18 2.406 27.22C2.406 27.896 2.57933 28.4593 2.926 28.91C3.29 29.3433 3.82733 29.7247 4.538 30.054C5.24867 30.366 6.29733 30.7473 7.684 31.198C9.10533 31.6487 10.2147 32.082 11.012 32.498C11.8093 32.914 12.4073 33.4167 12.806 34.006C13.222 34.5953 13.43 35.358 13.43 36.294C13.43 37.854 12.8493 39.076 11.688 39.96C10.5267 40.8267 8.932 41.26 6.904 41.26ZM21.5331 41C21.3597 41 21.2211 40.948 21.1171 40.844C21.0131 40.74 20.9611 40.6013 20.9611 40.428V24.36H15.8131C15.6397 24.36 15.5011 24.308 15.3971 24.204C15.2931 24.1 15.2411 23.9613 15.2411 23.788V23.398C15.2411 23.2247 15.2931 23.086 15.3971 22.982C15.5011 22.8607 15.6397 22.8 15.8131 22.8H27.7211C27.9117 22.8 28.0591 22.852 28.1631 22.956C28.2671 23.06 28.3191 23.2073 28.3191 23.398V23.788C28.3191 23.9613 28.2584 24.1 28.1371 24.204C28.0331 24.308 27.8944 24.36 27.7211 24.36H22.5991V40.428C22.5991 40.6013 22.5384 40.74 22.4171 40.844C22.3131 40.948 22.1744 41 22.0011 41H21.5331ZM38.0077 41.26C35.8411 41.26 34.1771 40.662 33.0157 39.466C31.8717 38.2527 31.2997 36.4153 31.2997 33.954V23.398C31.2997 23.2247 31.3517 23.086 31.4557 22.982C31.5597 22.8607 31.6984 22.8 31.8717 22.8H32.3397C32.5304 22.8 32.6777 22.852 32.7817 22.956C32.8857 23.06 32.9377 23.2073 32.9377 23.398V34.032C32.9377 35.9387 33.3797 37.36 34.2637 38.296C35.1477 39.232 36.3957 39.7 38.0077 39.7C39.6024 39.7 40.8417 39.232 41.7257 38.296C42.6097 37.36 43.0517 35.9387 43.0517 34.032V23.398C43.0517 23.2073 43.1037 23.06 43.2077 22.956C43.3291 22.852 43.4764 22.8 43.6497 22.8H44.1177C44.2911 22.8 44.4297 22.8607 44.5337 22.982C44.6377 23.086 44.6897 23.2247 44.6897 23.398V33.954C44.6897 36.4327 44.1177 38.27 42.9737 39.466C41.8297 40.662 40.1744 41.26 38.0077 41.26ZM50.0043 41C49.8309 41 49.6923 40.948 49.5883 40.844C49.4843 40.74 49.4323 40.6013 49.4323 40.428V23.398C49.4323 23.2247 49.4843 23.086 49.5883 22.982C49.6923 22.8607 49.8309 22.8 50.0043 22.8H50.4723C50.6629 22.8 50.8103 22.852 50.9143 22.956C51.0183 23.06 51.0703 23.2073 51.0703 23.398V30.158L58.9483 23.19C59.0869 23.086 59.2256 22.9993 59.3643 22.93C59.5203 22.8433 59.7109 22.8 59.9363 22.8H60.3523C60.4909 22.8 60.6123 22.852 60.7163 22.956C60.8203 23.06 60.8723 23.1813 60.8723 23.32C60.8723 23.4587 60.8289 23.5713 60.7423 23.658L51.9283 31.51L61.2883 40.116C61.3923 40.22 61.4443 40.3413 61.4443 40.48C61.4443 40.6187 61.3923 40.74 61.2883 40.844C61.1843 40.948 61.0629 41 60.9243 41H60.4823C60.2569 41 60.0663 40.9653 59.9103 40.896C59.7716 40.8093 59.6329 40.714 59.4943 40.61L51.0703 32.914V40.428C51.0703 40.6013 51.0096 40.74 50.8883 40.844C50.7843 40.948 50.6456 41 50.4723 41H50.0043ZM2.016 63C1.84267 63 1.704 62.948 1.6 62.844C1.496 62.74 1.444 62.6013 1.444 62.428V45.398C1.444 45.2247 1.496 45.086 1.6 44.982C1.704 44.8607 1.84267 44.8 2.016 44.8H2.484C2.67467 44.8 2.822 44.852 2.926 44.956C3.03 45.06 3.082 45.2073 3.082 45.398V52.99H13.118V45.398C13.118 45.2247 13.17 45.086 13.274 44.982C13.378 44.8607 13.5167 44.8 13.69 44.8H14.158C14.3487 44.8 14.496 44.852 14.6 44.956C14.704 45.06 14.756 45.2073 14.756 45.398V62.428C14.756 62.6013 14.6953 62.74 14.574 62.844C14.47 62.948 14.3313 63 14.158 63H13.69C13.5167 63 13.378 62.948 13.274 62.844C13.17 62.74 13.118 62.6013 13.118 62.428V54.55H3.082V62.428C3.082 62.6013 3.02133 62.74 2.9 62.844C2.796 62.948 2.65733 63 2.484 63H2.016ZM20.2211 63C20.0477 63 19.9091 62.948 19.8051 62.844C19.7011 62.74 19.6491 62.6013 19.6491 62.428V45.372C19.6491 45.1987 19.7011 45.06 19.8051 44.956C19.9091 44.852 20.0477 44.8 20.2211 44.8H20.7151C20.8884 44.8 21.0271 44.852 21.1311 44.956C21.2351 45.06 21.2871 45.1987 21.2871 45.372V62.428C21.2871 62.6013 21.2351 62.74 21.1311 62.844C21.0271 62.948 20.8884 63 20.7151 63H20.2211ZM26.7465 63C26.5731 63 26.4345 62.948 26.3305 62.844C26.2265 62.74 26.1745 62.6013 26.1745 62.428V45.398C26.1745 45.2247 26.2265 45.086 26.3305 44.982C26.4345 44.8607 26.5731 44.8 26.7465 44.8H27.2925C27.5178 44.8 27.6998 44.904 27.8385 45.112L37.4325 59.776V45.398C37.4325 45.2247 37.4845 45.086 37.5885 44.982C37.6925 44.8607 37.8311 44.8 38.0045 44.8H38.4725C38.6631 44.8 38.8105 44.852 38.9145 44.956C39.0185 45.06 39.0705 45.2073 39.0705 45.398V62.402C39.0705 62.5753 39.0185 62.7227 38.9145 62.844C38.8105 62.948 38.6718 63 38.4985 63H37.9265C37.7011 63 37.5191 62.896 37.3805 62.688L27.8125 48.076V62.428C27.8125 62.6013 27.7518 62.74 27.6305 62.844C27.5265 62.948 27.3878 63 27.2145 63H26.7465Z"/>
</svg>
