<svg width="28" height="28" viewBox="0 0 28 28" fill="none" xmlns="http://www.w3.org/2000/svg">
<path d="M9.98665 4.30493C8.71275 4.83225 7.55517 5.60529 6.57999 6.57993" stroke="#626262" stroke-width="2.33333" stroke-linecap="round" stroke-linejoin="round"/>
<path d="M4.305 9.98657C3.77598 11.2586 3.50245 12.6223 3.5 13.9999" stroke="#626262" stroke-width="2.33333" stroke-linecap="round" stroke-linejoin="round"/>
<path d="M4.30499 18.0134C4.83231 19.2873 5.60535 20.4449 6.57999 21.4201" stroke="#626262" stroke-width="2.33333" stroke-linecap="round" stroke-linejoin="round"/>
<path d="M9.98666 23.6951C11.2587 24.2241 12.6224 24.4976 14 24.5001" stroke="#626262" stroke-width="2.33333" stroke-linecap="round" stroke-linejoin="round"/>
<path d="M18.0133 23.6949C19.2872 23.1676 20.4448 22.3946 21.42 21.4199" stroke="#626262" stroke-width="2.33333" stroke-linecap="round" stroke-linejoin="round"/>
<path d="M23.695 18.0133C24.224 16.7413 24.4976 15.3776 24.5 14" stroke="#626262" stroke-width="2.33333" stroke-linecap="round" stroke-linejoin="round"/>
<path d="M23.695 9.98675C23.1677 8.71284 22.3946 7.55526 21.42 6.58008" stroke="#626262" stroke-width="2.33333" stroke-linecap="round" stroke-linejoin="round"/>
<path d="M18.0133 4.305C16.7413 3.77598 15.3776 3.50245 14 3.5" stroke="#626262" stroke-width="2.33333" stroke-linecap="round" stroke-linejoin="round"/>
</svg>
