<svg width="28" height="28" viewBox="0 0 28 28" fill="none" xmlns="http://www.w3.org/2000/svg">
<path d="M4.66666 9.33329V6.99996C4.66666 6.38112 4.91249 5.78763 5.35007 5.35004C5.78766 4.91246 6.38115 4.66663 6.99999 4.66663H9.33332" stroke="white" stroke-width="2.33333" stroke-linecap="round" stroke-linejoin="round"/>
<path d="M4.66666 18.6666V21C4.66666 21.6188 4.91249 22.2123 5.35007 22.6499C5.78766 23.0875 6.38115 23.3333 6.99999 23.3333H9.33332" stroke="white" stroke-width="2.33333" stroke-linecap="round" stroke-linejoin="round"/>
<path d="M18.6667 4.66663H21C21.6188 4.66663 22.2123 4.91246 22.6499 5.35004C23.0875 5.78763 23.3333 6.38112 23.3333 6.99996V9.33329" stroke="white" stroke-width="2.33333" stroke-linecap="round" stroke-linejoin="round"/>
<path d="M18.6667 23.3333H21C21.6188 23.3333 22.2123 23.0875 22.6499 22.6499C23.0875 22.2123 23.3333 21.6188 23.3333 21V18.6666" stroke="white" stroke-width="2.33333" stroke-linecap="round" stroke-linejoin="round"/>
<path d="M14 17.5C15.933 17.5 17.5 15.933 17.5 14C17.5 12.067 15.933 10.5 14 10.5C12.067 10.5 10.5 12.067 10.5 14C10.5 15.933 12.067 17.5 14 17.5Z" stroke="white" stroke-width="2.33333" stroke-linecap="round" stroke-linejoin="round"/>
</svg>
